<?xml version="1.0" encoding="utf-8"?>
<!-- Generator: Adobe Illustrator 19.0.0, SVG Export Plug-In . SVG Version: 6.00 Build 0)  -->
<svg version="1.1" xmlns="http://www.w3.org/2000/svg" xmlns:xlink="http://www.w3.org/1999/xlink" x="0px" y="0px"
	 viewBox="0 0 1332.3 510.2" style="enable-background:new 0 0 1332.3 510.2;" xml:space="preserve">
<style type="text/css">
	.st0{clip-path:url(#SVGID_2_);fill:#D21E2B;}
	.st1{clip-path:url(#SVGID_2_);fill:#434343;}
	.st2{clip-path:url(#SVGID_2_);fill:#828282;}
	.st3{clip-path:url(#SVGID_2_);fill:#424242;}
</style>
<g id="katman_2">
</g>
<g id="katman_1">
	<g>
		<defs>
			<rect id="SVGID_1_" width="1332.3" height="510.2"/>
		</defs>
		<clipPath id="SVGID_2_">
			<use xlink:href="#SVGID_1_"  style="overflow:visible;"/>
		</clipPath>
		<path class="st0" d="M262.8,255.1c-0.7-0.8-1.4-1.7-2.2-2.5c-14.9-15-29.9-29.9-44.8-44.9c-21.5-21.5-43.1-43.1-64.7-64.6
			c-1.9-1.9-2.2-3.4-0.1-5.4c10.2-10.1,20.3-20.2,30.4-30.4c3-3.1,4.8-1.1,7,1c20,20,40.1,40,60.1,60.1
			c27.6,27.6,55.1,55.2,82.7,82.6c3.1,3,3.8,4.9,0.3,8.3c-47.5,47.2-94.8,94.6-142.1,141.9c-5,5-5,5-10.1-0.2
			c-8.8-8.8-17.5-17.8-26.5-26.4c-3.4-3.2-3.7-5.2-0.2-8.7c35.7-35.4,71.2-71.1,106.8-106.6C260.5,258.3,262.1,257.2,262.8,255.1"/>
		<path class="st1" d="M828,249.4C828,249.4,828.1,249.4,828,249.4c0.1-19.3,0-38.7,0.1-58c0-2.9-0.1-5.3-4.1-5.3
			c-9.5,0.1-19,0-28.5,0c-2.3,0-3.9,0.7-3.9,3.3c0,4.1-2.1,2.7-4.2,1.7c-13.7-6.8-28.2-9.2-43.2-7.9c-22.2,2-40.6,11.4-53.1,30.5
			c-9.4,14.4-12.5,30.4-10.5,47.3c3,25.7,16,44.7,39.7,55.3c21.5,9.7,43.4,8.4,65-0.6c1.2-0.5,2.5-1.9,3.6-0.9
			c1.3,1.1,0.3,2.8-0.1,4.2c-1.3,4.8-3.6,8.9-6.9,12.6c-9.2,9.9-20.9,13.9-34,14.5c-14.8,0.6-29.1-2.5-43.3-6.4
			c-6.3-1.7-6.3-1.6-7.9,4.8c-1.3,5.2-2.5,10.4-4.1,15.5c-1.3,4.1-0.2,5.7,4,7.1c20.6,7,41.7,8.2,63.2,7.6c10-0.3,19.6-2.2,28.6-6.4
			c26.4-12.3,38-34.6,39.6-62.4C828.9,287.1,828,268.3,828,249.4z M753.4,295.2c-23.2,0.1-42.4-19.1-42.3-42.3
			c0.1-23.2,18.8-41.5,42.2-41.5c23.5,0,41.5,18.2,41.5,42C794.7,276.5,776.3,295.1,753.4,295.2z"/>
		<path class="st0" d="M1290.1,192.5c0-4.6-1.2-6.6-6.2-6.4c-8.5,0.3-17,0.2-25.5,0c-3.5-0.1-5.4,0.7-5,4.6c0.3,2.9-1.2,3-3.4,1.8
			c-1.2-0.6-2.4-1.2-3.6-1.8c-21.1-9.5-42.5-11.1-63.8-1.3c-43.5,19.9-53.2,82.2-20.8,117.7c21.6,23.7,57.4,28.8,86.7,12.8
			c4-2.2,5.4-1.8,4.9,2.8c-0.4,3.5,1.4,4.2,4.5,4.1c8.5-0.2,17,0,25.5-0.1c6.5,0,6.6-0.1,6.6-6.8c0-21.2,0-42.3,0-63.5
			C1290,235.1,1289.9,213.8,1290.1,192.5z M1216.3,298.2c-23.1-0.2-41.5-19.2-41.3-42.5c0.2-23.2,18.8-41.5,42.3-41.3
			c23.3,0.2,41.5,18.8,41.4,42.3C1258.4,279.8,1239.4,298.4,1216.3,298.2z"/>
		<path class="st2" d="M555.9,256.7c0-21.5-0.1-43,0.1-64.5c0-4.5-1.4-6.3-6-6.1c-8.5,0.3-17,0.1-25.5,0.1c-2.8,0-5.1,0.4-4.9,4
			c0.2,3.9-1.6,3.6-4.2,2.1c-5.1-2.9-10.6-4.9-16.3-6.3c-26-6.5-49.9-2.9-69.2,16.9c-18,18.4-24,41.2-19.8,66.3
			c3.9,23.3,15.6,41.9,37.4,52.4c22.7,10.9,45.5,9.4,67.7-2.4c3-1.6,5-2.4,4.4,2.3c-0.4,4,1.6,5.2,5.3,5.1c8.2-0.2,16.3-0.3,24.5,0
			c5,0.2,6.7-1.4,6.6-6.5C555.8,299,555.9,277.9,555.9,256.7z M481.5,297.4c-23.5-0.1-41.7-18.4-41.6-42c0.1-23.6,18.7-42,42.4-41.9
			c23.1,0.1,41.6,19,41.5,42.4C523.6,279.2,505,297.5,481.5,297.4z"/>
		<path class="st0" d="M1009.5,186.1c4.7,0,9.3,0.2,14-0.1c3.8-0.2,5.7,1.3,7,4.8c10.5,27.4,21.1,54.7,31.7,82
			c1,2.7,1.1,7.3,4.1,7.2c2.7-0.1,3-4.7,4-7.4c10.3-26.9,20.5-53.8,30.5-80.9c1.6-4.3,3.7-6,8.3-5.8c9,0.4,18,0.2,27,0.1
			c3.8-0.1,4.6,1.1,3.2,4.8c-18.7,47.4-37.3,94.8-55.8,142.3c-7.4,19-21.5,30.3-40.3,36.7c-14.5,4.9-29.4,5.3-44.5,4.9
			c-2.9-0.1-3.8-1.3-3.3-4.1c1.2-6.9,2.3-13.8,3.3-20.7c0.5-3.4,2.9-3.6,5.6-3.6c8.6,0.1,16.9-0.9,25-4c3.1-1.2,6.1-2.6,8.8-4.7
			c2.6-2.1,5-4.4,7-7.1c3-4-1.5-6-2.5-8.7c-16.7-43.5-33.8-86.9-50.7-130.4c-1.9-5-1.7-5.2,3.8-5.3
			C1000.2,186.1,1004.8,186.1,1009.5,186.1"/>
		<path class="st1" d="M986.9,240.3c-2.7-15.5-8.8-29.3-20.4-40.3c-22.9-21.8-61.8-21.1-84.4-7c-21.3,13.3-32.5,32.8-34.1,57.4
			c-1.8,28.6,8.6,52,33.1,67.8c17.5,11.3,36.9,12.6,56.9,8.9c16.7-3.1,31.1-10.7,42.5-23.5c2.8-3.2,2.3-5.3-0.8-7.7
			c-5.5-4.3-10.9-8.8-16.2-13.4c-2.4-2.1-4-2.2-6.1,0.4c-4,4.9-9.3,8.1-15,10.6c-23.1,9.9-48.3,0.3-56.2-21.4
			c-1.4-3.9-0.8-5.4,3.7-5.3c15.5,0.2,31,0.1,46.5,0.1c15.3,0,30.7-0.2,46,0.1c4.3,0.1,6-1.4,6.2-5.6
			C988.8,254.2,988.1,247.2,986.9,240.3z M947.7,243.2c-9.8-0.2-19.6-0.1-29.4-0.1c-9.7,0-19.3,0-29,0c-1.9,0-4.5,0.4-3.4-3
			c3.8-12.6,11.2-22.3,24.1-25.8c13.4-3.7,26.2-2.1,36,9.2c3.6,4.1,5.4,9.1,6.4,14.4C953.2,241.8,951.8,243.3,947.7,243.2z"/>
		<path class="st2" d="M149.5,183.4c-0.4,1.8-2,2.9-3.3,4.2c-18.4,18.6-36.8,37.1-55.2,55.6c-2.5,2.5-4.6,5.3-7.3,7.5
			c-4.1,3.4-3.2,6,0.3,9.2c5.7,5.3,11.1,11,16.6,16.6c15.2,15.2,30.2,30.6,45.6,45.5c3.8,3.7,3.4,6.1,0,9.3
			c-4.8,4.6-9.5,9.3-14.1,14.2c-2.5,2.7-4.3,2.8-6.9,0.1C111.6,331.8,97.8,318,84,304.2c-14.9-15-29.8-30-44.9-44.9
			c-3.4-3.3-3.5-5.5,0-8.9c28.7-28.5,57.3-57.2,85.8-85.9c2.9-3,4.7-3.1,7.5,0.2c4.8,5.5,10.2,10.5,15.3,15.7
			C148.5,181.3,149.5,182,149.5,183.4"/>
		<path class="st2" d="M618,204.2c12.5-14.5,26.9-21.3,44.5-21c7.6,0.1,8.5,1.1,8.5,8.7c0,9.2-0.1,18.3,0,27.5
			c0.1,4-1.3,5.3-5.4,4.5c-6.4-1.1-12.7-1.9-19.3-0.7c-14.8,2.6-24.5,11.9-27.2,26.7c-0.7,4.1-1.1,8.2-1.1,12.4
			c0.1,19.3-0.1,38.6,0.1,58c0.1,4.8-1.6,6.4-6.3,6.3c-8.3-0.3-16.7-0.2-25,0c-3.9,0.1-5.2-1.5-5.2-5.3c0.1-43.3,0.1-86.6,0-129.9
			c0-3.8,1.3-5.4,5.2-5.3c8.8,0.2,17.7,0.1,26.5,0c3.4,0,4.9,1.3,4.8,4.7C617.9,194.9,618,198.8,618,204.2"/>
		<path class="st3" d="M196.7,254.5c-0.8-0.8-1.6-1.8-2.5-2.7c-10.8-10.8-21.6-21.7-32.6-32.4c-2.6-2.6-2.3-4,0.1-6.4
			c9.1-9.2,9.1-9.3,18.1-0.2c13,13,25.9,26,38.9,38.8c2.5,2.5,3,4,0.1,6.8c-14.9,14.6-29.6,29.3-44.2,44.1c-2.9,3-4.7,2.9-7.6,0
			c-8.5-8.6-8.6-8.5-0.2-16.9c9.2-9.2,18.4-18.4,27.5-27.6C195.4,257,196.6,256.3,196.7,254.5"/>
	</g>
</g>
</svg>
